<?xml version="1.0" encoding="utf-8"?>
<!-- Generator: Adobe Illustrator 25.4.1, SVG Export Plug-In . SVG Version: 6.00 Build 0)  -->
<svg version="1.1" id="レイヤー_1" xmlns="http://www.w3.org/2000/svg" xmlns:xlink="http://www.w3.org/1999/xlink" x="0px"
	 y="0px" viewBox="0 0 330 42" style="enable-background:new 0 0 330 42;" xml:space="preserve">
<style type="text/css">
	.st0{fill:none;}
	.st1{fill:#85CFF1;}
	.st2{fill:#44731F;}
	.st3{fill:#4B7E24;}
	.st4{fill:#6F9E2C;}
	.st5{fill:#508527;}
	.st6{fill:#7D9B48;}
	.st7{fill:#578E2B;}
	.st8{fill:#835014;}
	.st9{fill:#623901;}
	.st10{fill:#A57942;}
	.st11{fill:#9C611F;}
	.st12{fill:#71440A;}
	.st13{fill:#B08147;}
	.st14{fill:#231815;}
	.st15{fill:#374C10;}
	.st16{fill:#74460C;}
	.st17{fill:#563000;}
	.st18{fill:#886333;}
	.st19{fill:url(#ガマ__x28_カラー_x29_);stroke:#25770B;stroke-miterlimit:10;}
	.st20{opacity:0.42;}
	.st21{fill:#39960E;}
</style>
<pattern  x="65" y="42.4" width="199.7" height="185" patternUnits="userSpaceOnUse" id="ガマ__x28_カラー_x29_" viewBox="49.9 -282.3 199.7 185" style="overflow:visible;">
	<g>
		<rect x="49.9" y="-282.3" class="st0" width="199.7" height="185"/>
		<g>
			<rect x="199.7" y="-372.1" class="st1" width="99.9" height="187.1"/>
			<g>
				<path class="st2" d="M237.2-438.6l-0.4,233.9l1.4,0.4C238.2-204.3,243.5-436.8,237.2-438.6z"/>
				<path class="st3" d="M236.6-220.8c0,0-3.9-104.3,9.6-141.8C241.2-339.3,240.5-260.1,236.6-220.8z"/>
				<g>
					<path class="st2" d="M247.9-404.2l17.5,164.9l0.5,16C265.9-223.4,262-391.5,247.9-404.2z"/>
				</g>
				<path class="st4" d="M222.9-394.3c-6.1,9.8-1.5,172.4,1.6,182.5h1.9C226.4-211.8,219.3-388.5,222.9-394.3z"/>
				<g>
					<path class="st4" d="M244.7-329.1c-6.1,9.8-9.4,129-6.2,139.1h1.9C240.4-190,241.1-323.3,244.7-329.1z"/>
					<path class="st5" d="M238.3-200.3c0,0-3.7-114,22.6-129.1C247.3-314.4,240.2-220.7,238.3-200.3z"/>
					<path class="st6" d="M238.8-192.4c0,0,12.2-113.2,40.9-123.2C263.7-303.4,244.5-212.1,238.8-192.4z"/>
					<path class="st2" d="M236.9-193.3c0,0,11-126.1,38.5-139.1C260.7-318.5,240.4-213.5,236.9-193.3z"/>
				</g>
				<g>
					<path class="st6" d="M227.6-238.2c0,0-15.1-123,9.5-140.8C225.2-362.6,227.3-258.7,227.6-238.2z"/>
				</g>
				<path class="st5" d="M207.4-226.7c0,0-1.6-124.2,25.2-138.4C218.5-350.5,209.9-247.1,207.4-226.7z"/>
				<path class="st6" d="M201.4-377.5c0,0,41.4,137.5,21.6,160.5C230.8-235.6,206.5-357.6,201.4-377.5z"/>
				<path class="st2" d="M228.1-235.7c0,0-5.6-129.6-21.3-166.3C208-393.9,221.8-274.7,228.1-235.7z"/>
			</g>
			<path class="st2" d="M237.5-232.7c0,0-1.2-129.8-15.4-167.1C223-391.7,232.9-272,237.5-232.7z"/>
		</g>
		<g>
			<rect x="99.9" y="-372.1" class="st1" width="99.9" height="187.1"/>
			<g>
				<path class="st4" d="M164-356.4l7.2,164.3l2.1-0.4C173.3-192.4,170.7-354.6,164-356.4z"/>
				<path class="st2" d="M137.3-438.6L137-204.7l1.4,0.4C138.4-204.3,143.7-436.8,137.3-438.6z"/>
				<path class="st2" d="M165.4-199.3c0,0-5.3-128,17.2-163.5C167.3-325.3,169.3-238.6,165.4-199.3z"/>
				<path class="st3" d="M136.7-220.8c0,0-3.9-104.3,9.6-141.8C141.3-339.3,140.6-260.1,136.7-220.8z"/>
				<g>
					<path class="st2" d="M148.1-404.2l17.5,164.9l0.5,16C166-223.4,162.2-391.5,148.1-404.2z"/>
				</g>
				<path class="st4" d="M123-394.3c-6.1,9.8-1.5,172.4,1.6,182.5h1.9C126.5-211.8,119.4-388.5,123-394.3z"/>
				<path class="st5" d="M181.2-221.7c0,0-1.5-101.9-15-139.5C166.9-353,177.3-261,181.2-221.7z"/>
				<g>
					<path class="st4" d="M144.9-329.1c-6.1,9.8-9.4,129-6.2,139.1h1.9C140.5-190,141.2-323.3,144.9-329.1z"/>
					<path class="st5" d="M138.4-200.3c0,0-3.7-114,22.6-129.1C147.5-314.4,140.3-220.7,138.4-200.3z"/>
					<path class="st6" d="M139-192.4c0,0,12.2-113.2,40.9-123.2C163.8-303.4,144.6-212.1,139-192.4z"/>
					<path class="st2" d="M137-193.3c0,0,11-126.1,38.5-139.1C160.8-318.5,140.6-213.5,137-193.3z"/>
				</g>
				<g>
					<path class="st4" d="M194.9-417.3c-7.4,7.4-6.1,182.4-2.9,192.5h1.9C193.9-224.8,190.1-412.5,194.9-417.3z"/>
					<path class="st6" d="M171.2-392.5c0,0,41.4,137.5,21.6,160.5C200.6-250.7,176.3-372.6,171.2-392.5z"/>
					<path class="st6" d="M127.8-238.2c0,0-15.1-123,9.5-140.8C125.4-362.6,127.5-258.7,127.8-238.2z"/>
				</g>
				<path class="st2" d="M204.7-235.7c0,0-5.6-129.6-21.3-166.3C184.7-393.9,198.4-274.7,204.7-235.7z"/>
				<path class="st5" d="M107.5-226.7c0,0-1.6-124.2,25.2-138.4C118.7-350.5,110.1-247.1,107.5-226.7z"/>
				<path class="st6" d="M101.5-377.5c0,0,41.4,137.5,21.6,160.5C131-235.6,106.6-357.6,101.5-377.5z"/>
				<path class="st2" d="M128.2-235.7c0,0-5.6-129.6-21.3-166.3C108.1-393.9,121.9-274.7,128.2-235.7z"/>
			</g>
			<path class="st7" d="M173.2-207.8c0,0,1-129.8-12.3-167.4C161.5-367,169.4-247.1,173.2-207.8z"/>
			<path class="st2" d="M137.7-232.7c0,0-1.2-129.8-15.4-167.1C123.1-391.7,133-272,137.7-232.7z"/>
		</g>
		<g>
			<rect x="0" y="-372.1" class="st1" width="99.9" height="187.1"/>
			<g>
				<path class="st4" d="M64.1-356.4L71.3-192l2.1-0.4C73.5-192.4,70.9-354.6,64.1-356.4z"/>
				<path class="st2" d="M65.5-199.3c0,0-5.3-128,17.2-163.5C67.4-325.3,69.4-238.6,65.5-199.3z"/>
				<g>
					<path class="st2" d="M48.2-404.2l17.5,164.9l0.5,16C66.2-223.4,62.3-391.5,48.2-404.2z"/>
				</g>
				<path class="st5" d="M81.3-221.7c0,0-1.5-101.9-15-139.5C67-353,77.4-261,81.3-221.7z"/>
				<g>
					<path class="st5" d="M38.5-200.3c0,0-3.7-114,22.6-129.1C47.6-314.4,40.5-220.7,38.5-200.3z"/>
					<path class="st6" d="M39.1-192.4c0,0,12.2-113.2,40.9-123.2C63.9-303.4,44.8-212.1,39.1-192.4z"/>
					<path class="st2" d="M37.2-193.3c0,0,11-126.1,38.5-139.1C61-318.5,40.7-213.5,37.2-193.3z"/>
				</g>
				<g>
					<path class="st4" d="M95-417.3c-7.4,7.4-6.1,182.4-2.9,192.5H94C94-224.8,90.2-412.5,95-417.3z"/>
					<path class="st6" d="M71.4-392.5c0,0,41.4,137.5,21.6,160.5C100.8-250.7,76.4-372.6,71.4-392.5z"/>
				</g>
				<path class="st2" d="M104.9-235.7c0,0-5.6-129.6-21.3-166.3C84.8-393.9,98.6-274.7,104.9-235.7z"/>
			</g>
			<path class="st7" d="M73.3-207.8c0,0,1-129.8-12.3-167.4C61.7-367,69.5-247.1,73.3-207.8z"/>
		</g>
		<g>
			<rect x="199.7" y="-187.1" class="st1" width="99.9" height="187.1"/>
			<g>
				<path class="st2" d="M237.2-253.6l-0.4,233.9l1.4,0.4C238.2-19.3,243.5-251.8,237.2-253.6z"/>
				<path class="st3" d="M236.6-35.8c0,0-3.9-104.3,9.6-141.8C241.2-154.2,240.5-75.1,236.6-35.8z"/>
				<g>
					<path class="st2" d="M247.9-219.2l17.5,164.9l0.5,16C265.9-38.3,262-206.5,247.9-219.2z"/>
					<path class="st8" d="M244.9-218.7c0,4.7-2.2,8.6-5.8,8.6h-0.6c-3.6,0-6.5-3.8-6.5-8.6v-44.5c0-4.7,2.9-8.6,6.5-8.6h0.6
						c3.6,0,5.8,3.8,5.8,8.6V-218.7z"/>
					<path class="st9" d="M234.3-263.9l2.1,46.1c0,0,1.9,4.3,6.6,2.4c-2.8,4.7-8.3,4.7-9-1.7C233.2-225.1,234-258.9,234.3-263.9z"/>
					<path class="st10" d="M238.1-268.6c0,0,6.5,1.2,5.3,17.9C245.1-257.3,244.1-272.5,238.1-268.6z"/>
				</g>
				<path class="st4" d="M222.9-209.3c-6.1,9.8-1.5,172.4,1.6,182.5h1.9C226.4-26.8,219.3-203.5,222.9-209.3z"/>
				<path class="st11" d="M221.4-183.7c0,4.7-2.2,8.6-5.8,8.6H215c-3.6,0-6.5-3.8-6.5-8.6v-44.5c0-4.7,2.9-8.6,6.5-8.6h0.6
					c3.6,0,5.8,3.8,5.8,8.6V-183.7z"/>
				<path class="st12" d="M210.8-228.8l2.1,46.1c0,0,1.9,4.2,6.6,2.4c-2.8,4.7-8.3,4.7-9-1.7C209.6-190,210.5-223.9,210.8-228.8z"/>
				<path class="st13" d="M214.1-233.8c0,0,5.2,0.1,5.9,13.8C221.6-226.6,220.1-237.7,214.1-233.8z"/>
				<path class="st7" d="M229.7-98.4c3.2-133.3,12.4-136.4,19-154.7C240.7-231.1,233.6-137.8,229.7-98.4z"/>
				<g>
					<path class="st4" d="M244.7-144.1c-6.1,9.8-9.4,129-6.2,139.1h1.9C240.4-5,241.1-138.3,244.7-144.1z"/>
					<path class="st11" d="M256.1-122.7c0,4.7-2.2,8.6-5.8,8.6h-0.6c-3.6,0-6.5-3.8-6.5-8.6v-44.5c0-4.7,2.9-8.6,6.5-8.6h0.6
						c3.6,0,5.8,3.8,5.8,8.6V-122.7z"/>
					<path class="st12" d="M245.5-167.8l2.1,46.1c0,0,1.9,4.2,6.6,2.4c-2.8,4.7-8.3,4.7-9-1.7C244.4-129.1,245.3-162.9,245.5-167.8z
						"/>
					<path class="st13" d="M249.1-171.4c0,0,4.2-4,4.8,25C255.5-152.9,255.3-179.4,249.1-171.4z"/>
					<path class="st5" d="M238.3-15.2c0,0-3.7-114,22.6-129.1C247.3-129.4,240.2-35.7,238.3-15.2z"/>
					<path class="st6" d="M238.8-7.4c0,0,12.2-113.2,40.9-123.2C263.7-118.3,244.5-27.1,238.8-7.4z"/>
					<path class="st2" d="M236.9-8.3c0,0,11-126.1,38.5-139.1C260.7-133.5,240.4-28.5,236.9-8.3z"/>
				</g>
				<g>
					<path class="st6" d="M227.6-53.2c0,0-15.1-123,9.5-140.8C225.2-177.6,227.3-73.7,227.6-53.2z"/>
				</g>
				<g>
					<path class="st14" d="M217.8-235.1c0,0.6-1.2,1.2-2.3,1.2c-1.1,0-2.2-0.6-2.2-1.2s1.1-0.1,2.2,0.1
						C216.7-234.8,217.8-235.7,217.8-235.1z"/>
					<path class="st15" d="M214.3-234.2c0.9,0.4,1.9,0.3,2.5,0l-1.3-8.3l-0.5-0.3L214.3-234.2z"/>
				</g>
				<g>
					<path class="st14" d="M240.5-270.4c0.1,0.6-1.1,1.3-2.2,1.4c-1.1,0.1-2.2-0.4-2.3-1c-0.1-0.6,1.1-0.2,2.2-0.1
						C239.3-270.1,240.4-271,240.5-270.4z"/>
					<path class="st15" d="M237.1-269.2c0.9,0.4,1.9,0.1,2.5-0.3l-2.1-8.1l-0.5-0.3L237.1-269.2z"/>
				</g>
				<g>
					<path class="st14" d="M252.3-174.7c0,0.6-1.2,1.1-2.3,1.1c-1.1,0-2.2-0.7-2.2-1.2c0-0.6,1.1-0.1,2.2,0.1
						C251.1-174.5,252.3-175.3,252.3-174.7z"/>
					<path class="st15" d="M248.8-173.8c0.9,0.5,1.8,0.3,2.5,0l-1-5.8l-0.5-0.3L248.8-173.8z"/>
				</g>
				<path class="st5" d="M207.4-41.7c0,0-1.6-124.2,25.2-138.4C218.5-165.5,209.9-62.1,207.4-41.7z"/>
				<path class="st6" d="M201.4-192.5c0,0,41.4,137.5,21.6,160.5C230.8-50.6,206.5-172.5,201.4-192.5z"/>
				<path class="st2" d="M228.1-50.7c0,0-5.6-129.6-21.3-166.3C208-208.9,221.8-89.7,228.1-50.7z"/>
			</g>
			<path class="st2" d="M237.5-47.7c0,0-1.2-129.8-15.4-167.1C223-206.6,232.9-87,237.5-47.7z"/>
		</g>
		<g>
			<rect x="99.9" y="-187.1" class="st1" width="99.9" height="187.1"/>
			<g>
				<g>
					<path class="st4" d="M152.5-270.2c6.8,9.2,17.5,100.5,15.2,110.8l-1.9,0.2C165.9-159.3,156.6-264.8,152.5-270.2z"/>
					<path class="st5" d="M166.4-170.2c0,0-3.7-86.6,22.6-101.6C175.5-256.8,168.3-190.6,166.4-170.2z"/>
					<path class="st5" d="M167-162.3c0,0,12.2-85.8,40.9-95.7C191.8-245.8,172.6-182.1,167-162.3z"/>
				</g>
				<path class="st4" d="M164-171.3L171.2-7l2.1-0.4C173.3-7.4,170.7-169.6,164-171.3z"/>
				<path class="st2" d="M137.3-253.6L137-19.6l1.4,0.4C138.4-19.3,143.7-251.8,137.3-253.6z"/>
				<path class="st2" d="M165.4-14.3c0,0-5.3-128,17.2-163.5C167.3-140.3,169.3-53.6,165.4-14.3z"/>
				<path class="st3" d="M136.7-35.8c0,0-3.9-104.3,9.6-141.8C141.3-154.2,140.6-75.1,136.7-35.8z"/>
				<g>
					<path class="st2" d="M148.1-219.2l17.5,164.9l0.5,16C166-38.3,162.2-206.5,148.1-219.2z"/>
					<path class="st8" d="M145-218.7c0,4.7-2.2,8.6-5.8,8.6h-0.6c-3.6,0-6.5-3.8-6.5-8.6v-44.5c0-4.7,2.9-8.6,6.5-8.6h0.6
						c3.6,0,5.8,3.8,5.8,8.6V-218.7z"/>
					<path class="st9" d="M134.4-263.9l2.1,46.1c0,0,1.9,4.3,6.6,2.4c-2.8,4.7-8.3,4.7-9-1.7C133.3-225.1,134.2-258.9,134.4-263.9z"
						/>
					<path class="st10" d="M138.2-268.6c0,0,6.5,1.2,5.3,17.9C145.2-257.3,144.3-272.5,138.2-268.6z"/>
				</g>
				<path class="st4" d="M123-209.3c-6.1,9.8-1.5,172.4,1.6,182.5h1.9C126.5-26.8,119.4-203.5,123-209.3z"/>
				<path class="st11" d="M121.5-183.7c0,4.7-2.2,8.6-5.8,8.6h-0.6c-3.6,0-6.5-3.8-6.5-8.6v-44.5c0-4.7,2.9-8.6,6.5-8.6h0.6
					c3.6,0,5.8,3.8,5.8,8.6V-183.7z"/>
				<path class="st12" d="M110.9-228.8l2.1,46.1c0,0,1.9,4.2,6.6,2.4c-2.8,4.7-8.3,4.7-9-1.7C109.8-190,110.7-223.9,110.9-228.8z"/>
				<path class="st13" d="M114.2-233.8c0,0,5.2,0.1,5.9,13.8C121.8-226.6,120.2-237.7,114.2-233.8z"/>
				<path class="st7" d="M129.9-98.4c3.2-133.3,12.4-136.4,19-154.7C140.9-231.1,133.8-137.8,129.9-98.4z"/>
				<path class="st5" d="M181.2-36.6c0,0-1.5-101.9-15-139.5C166.9-168,177.3-76,181.2-36.6z"/>
				<g>
					<path class="st4" d="M144.9-144.1c-6.1,9.8-9.4,129-6.2,139.1h1.9C140.5-5,141.2-138.3,144.9-144.1z"/>
					<path class="st11" d="M156.2-122.7c0,4.7-2.2,8.6-5.8,8.6h-0.6c-3.6,0-6.5-3.8-6.5-8.6v-44.5c0-4.7,2.9-8.6,6.5-8.6h0.6
						c3.6,0,5.8,3.8,5.8,8.6V-122.7z"/>
					<path class="st12" d="M145.7-167.8l2.1,46.1c0,0,1.9,4.2,6.6,2.4c-2.8,4.7-8.3,4.7-9-1.7C144.5-129.1,145.4-162.9,145.7-167.8z
						"/>
					<path class="st13" d="M149.3-171.4c0,0,4.2-4,4.8,25C155.7-152.9,155.5-179.4,149.3-171.4z"/>
					<path class="st5" d="M138.4-15.2c0,0-3.7-114,22.6-129.1C147.5-129.4,140.3-35.7,138.4-15.2z"/>
					<path class="st6" d="M139-7.4c0,0,12.2-113.2,40.9-123.2C163.8-118.3,144.6-27.1,139-7.4z"/>
					<path class="st2" d="M137-8.3c0,0,11-126.1,38.5-139.1C160.8-133.5,140.6-28.5,137-8.3z"/>
				</g>
				<g>
					<path class="st4" d="M194.9-232.3c-7.4,7.4-6.1,182.4-2.9,192.5h1.9C193.9-39.8,190.1-227.5,194.9-232.3z"/>
					<path class="st11" d="M196.7-193.7c0,4.7-2.2,8.6-5.8,8.6h-0.6c-3.6,0-6.5-3.8-6.5-8.6v-44.5c0-4.7,2.9-8.6,6.5-8.6h0.6
						c3.6,0,5.8,3.8,5.8,8.6V-193.7z"/>
					<path class="st12" d="M186.1-238.8l2.1,46.1c0,0,1.9,4.2,6.6,2.4c-2.8,4.7-8.3,4.7-9-1.7C185-200,185.9-233.8,186.1-238.8z"/>
					<path class="st13" d="M189.4-242.3c0,0,4.8-3.7,5.5,10C196.6-238.9,195.5-246.2,189.4-242.3z"/>
					<path class="st5" d="M177.5-99.8c0,0,1.5-102,28.4-116.2C191.8-201.5,180.1-120.2,177.5-99.8z"/>
					<path class="st6" d="M171.2-207.5c0,0,41.4,137.5,21.6,160.5C200.6-65.7,176.3-187.6,171.2-207.5z"/>
					<path class="st6" d="M127.8-53.2c0,0-15.1-123,9.5-140.8C125.4-177.6,127.5-73.7,127.8-53.2z"/>
				</g>
				<g>
					<path class="st14" d="M118-235.1c0,0.6-1.2,1.2-2.3,1.2c-1.1,0-2.2-0.6-2.2-1.2s1.1-0.1,2.2,0.1
						C116.8-234.8,118-235.7,118-235.1z"/>
					<path class="st15" d="M114.5-234.2c0.9,0.4,1.9,0.3,2.5,0l-1.3-8.3l-0.5-0.3L114.5-234.2z"/>
				</g>
				<g>
					<path class="st14" d="M140.6-270.4c0.1,0.6-1.1,1.3-2.2,1.4c-1.1,0.1-2.2-0.4-2.3-1c-0.1-0.6,1.1-0.2,2.2-0.1
						C139.5-270.1,140.6-271,140.6-270.4z"/>
					<path class="st15" d="M137.2-269.2c0.9,0.4,1.9,0.1,2.5-0.3l-2.1-8.1l-0.5-0.3L137.2-269.2z"/>
				</g>
				<g>
					<path class="st14" d="M192.9-245c0,0.6-1.2,1.1-2.3,1.1c-1.1,0-2.2-0.7-2.2-1.2c0-0.6,1.1-0.1,2.2,0.1
						C191.8-244.8,193-245.6,192.9-245z"/>
					<path class="st15" d="M189.4-244.1c0.9,0.5,1.8,0.3,2.5,0l-1-5.8l-0.5-0.3L189.4-244.1z"/>
				</g>
				<g>
					<path class="st14" d="M152.4-174.7c0,0.6-1.2,1.1-2.3,1.1c-1.1,0-2.2-0.7-2.2-1.2c0-0.6,1.1-0.1,2.2,0.1
						C151.3-174.5,152.5-175.3,152.4-174.7z"/>
					<path class="st15" d="M148.9-173.8c0.9,0.5,1.8,0.3,2.5,0l-1-5.8l-0.5-0.3L148.9-173.8z"/>
				</g>
				<path class="st2" d="M204.7-50.7c0,0-5.6-129.6-21.3-166.3C184.7-208.9,198.4-89.7,204.7-50.7z"/>
				<path class="st5" d="M107.5-41.7c0,0-1.6-124.2,25.2-138.4C118.7-165.5,110.1-62.1,107.5-41.7z"/>
				<path class="st6" d="M101.5-192.5c0,0,41.4,137.5,21.6,160.5C131-50.6,106.6-172.5,101.5-192.5z"/>
				<path class="st2" d="M128.2-50.7c0,0-5.6-129.6-21.3-166.3C108.1-208.9,121.9-89.7,128.2-50.7z"/>
				<path class="st16" d="M173.5-169c0,4.7-2.2,8.6-5.8,8.6h-0.6c-3.6,0-6.5-3.8-6.5-8.6v-44.5c0-4.7,2.9-8.6,6.5-8.6h0.6
					c3.6,0,5.8,3.8,5.8,8.6V-169z"/>
				<path class="st17" d="M162.9-214.1l2.1,46.1c0,0,1.9,4.2,6.6,2.4c-2.8,4.7-8.3,4.7-9-1.7C161.7-175.3,162.6-209.2,162.9-214.1z"
					/>
				<path class="st18" d="M165.8-219.4c0,0,5.2,0.1,5.9,13.8C173.4-212.2,171.8-223.3,165.8-219.4z"/>
				<g>
					<path class="st14" d="M170.4-220.7c0,0.6-1.2,1.1-2.3,1.1c-1.1,0-2.2-0.7-2.2-1.2c0-0.6,1.1-0.1,2.2,0.1
						C169.3-220.5,170.4-221.3,170.4-220.7z"/>
					<path class="st15" d="M166.9-219.9c0.9,0.5,1.8,0.3,2.5,0l-1-5.8l-0.5-0.3L166.9-219.9z"/>
				</g>
			</g>
			<path class="st7" d="M173.2-22.8c0,0,1-129.8-12.3-167.4C161.5-182,169.4-62.1,173.2-22.8z"/>
			<path class="st2" d="M137.7-47.7c0,0-1.2-129.8-15.4-167.1C123.1-206.6,133-87,137.7-47.7z"/>
		</g>
		<g>
			<rect x="0" y="-187.1" class="st1" width="99.9" height="187.1"/>
			<g>
				<g>
					<path class="st4" d="M52.7-270.2c6.8,9.2,17.5,100.5,15.2,110.8l-1.9,0.2C66-159.3,56.8-264.8,52.7-270.2z"/>
					<path class="st5" d="M66.5-170.2c0,0-3.7-86.6,22.6-101.6C75.6-256.8,68.5-190.6,66.5-170.2z"/>
					<path class="st5" d="M67.1-162.3c0,0,12.2-85.8,40.9-95.7C91.9-245.8,72.8-182.1,67.1-162.3z"/>
				</g>
				<path class="st4" d="M64.1-171.3L71.3-7l2.1-0.4C73.5-7.4,70.9-169.6,64.1-171.3z"/>
				<path class="st2" d="M65.5-14.3c0,0-5.3-128,17.2-163.5C67.4-140.3,69.4-53.6,65.5-14.3z"/>
				<g>
					<path class="st2" d="M48.2-219.2L65.7-54.3l0.5,16C66.2-38.3,62.3-206.5,48.2-219.2z"/>
				</g>
				<path class="st5" d="M81.3-36.6c0,0-1.5-101.9-15-139.5C67-168,77.4-76,81.3-36.6z"/>
				<g>
					<path class="st11" d="M56.4-122.7c0,4.7-2.2,8.6-5.8,8.6H50c-3.6,0-6.5-3.8-6.5-8.6v-44.5c0-4.7,2.9-8.6,6.5-8.6h0.6
						c3.6,0,5.8,3.8,5.8,8.6V-122.7z"/>
					<path class="st12" d="M45.8-167.8l2.1,46.1c0,0,1.9,4.2,6.6,2.4c-2.8,4.7-8.3,4.7-9-1.7C44.7-129.1,45.6-162.9,45.8-167.8z"/>
					<path class="st13" d="M49.4-171.4c0,0,4.2-4,4.8,25C55.8-152.9,55.6-179.4,49.4-171.4z"/>
					<path class="st5" d="M38.5-15.2c0,0-3.7-114,22.6-129.1C47.6-129.4,40.5-35.7,38.5-15.2z"/>
					<path class="st6" d="M39.1-7.4c0,0,12.2-113.2,40.9-123.2C63.9-118.3,44.8-27.1,39.1-7.4z"/>
					<path class="st2" d="M37.2-8.3c0,0,11-126.1,38.5-139.1C61-133.5,40.7-28.5,37.2-8.3z"/>
				</g>
				<g>
					<path class="st4" d="M95-232.3c-7.4,7.4-6.1,182.4-2.9,192.5H94C94-39.8,90.2-227.5,95-232.3z"/>
					<path class="st11" d="M96.9-193.7c0,4.7-2.2,8.6-5.8,8.6h-0.6c-3.6,0-6.5-3.8-6.5-8.6v-44.5c0-4.7,2.9-8.6,6.5-8.6h0.6
						c3.6,0,5.8,3.8,5.8,8.6V-193.7z"/>
					<path class="st12" d="M86.3-238.8l2.1,46.1c0,0,1.9,4.2,6.6,2.4c-2.8,4.7-8.3,4.7-9-1.7C85.2-200,86-233.8,86.3-238.8z"/>
					<path class="st13" d="M89.6-242.3c0,0,4.8-3.7,5.5,10C96.7-238.9,95.6-246.2,89.6-242.3z"/>
					<path class="st5" d="M77.7-99.8c0,0,1.5-102,28.4-116.2C92-201.5,80.2-120.2,77.7-99.8z"/>
					<path class="st6" d="M71.4-207.5c0,0,41.4,137.5,21.6,160.5C100.8-65.7,76.4-187.6,71.4-207.5z"/>
				</g>
				<g>
					<path class="st14" d="M93.1-245c0,0.6-1.2,1.1-2.3,1.1c-1.1,0-2.2-0.7-2.2-1.2c0-0.6,1.1-0.1,2.2,0.1
						C91.9-244.8,93.1-245.6,93.1-245z"/>
					<path class="st15" d="M89.6-244.1c0.9,0.5,1.8,0.3,2.5,0l-1-5.8l-0.5-0.3L89.6-244.1z"/>
				</g>
				<g>
					<path class="st14" d="M52.6-174.7c0,0.6-1.2,1.1-2.3,1.1c-1.1,0-2.2-0.7-2.2-1.2c0-0.6,1.1-0.1,2.2,0.1
						C51.4-174.5,52.6-175.3,52.6-174.7z"/>
					<path class="st15" d="M49.1-173.8c0.9,0.5,1.8,0.3,2.5,0l-1-5.8l-0.5-0.3L49.1-173.8z"/>
				</g>
				<path class="st2" d="M104.9-50.7c0,0-5.6-129.6-21.3-166.3C84.8-208.9,98.6-89.7,104.9-50.7z"/>
				<path class="st16" d="M73.6-169c0,4.7-2.2,8.6-5.8,8.6h-0.6c-3.6,0-6.5-3.8-6.5-8.6v-44.5c0-4.7,2.9-8.6,6.5-8.6h0.6
					c3.6,0,5.8,3.8,5.8,8.6V-169z"/>
				<path class="st17" d="M63-214.1l2.1,46.1c0,0,1.9,4.2,6.6,2.4c-2.8,4.7-8.3,4.7-9-1.7C61.9-175.3,62.8-209.2,63-214.1z"/>
				<path class="st18" d="M66-219.4c0,0,5.2,0.1,5.9,13.8C73.5-212.2,72-223.3,66-219.4z"/>
				<g>
					<path class="st14" d="M70.6-220.7c0,0.6-1.2,1.1-2.3,1.1c-1.1,0-2.2-0.7-2.2-1.2c0-0.6,1.1-0.1,2.2,0.1
						C69.4-220.5,70.6-221.3,70.6-220.7z"/>
					<path class="st15" d="M67-219.9c0.9,0.5,1.8,0.3,2.5,0l-1-5.8l-0.5-0.3L67-219.9z"/>
				</g>
			</g>
			<path class="st7" d="M73.3-22.8c0,0,1-129.8-12.3-167.4C61.7-182,69.5-62.1,73.3-22.8z"/>
		</g>
	</g>
</pattern>
<g>
	<path class="st19" d="M18.7,29.6l-5.4,0l-0.1-2.3l3.8,0l0-7.6l-5.5,0L11,29.5H5.3l-1.5-13h4.7l-0.1-1.6H3.5L3.1,11h5L7.9,8.8h4.1
		L12,11h4.3l-0.2,3.9h-4.3l-0.1,1.6h8.4L18.7,29.6z M8.8,19.8h-2l0.3,7.6h2.2L8.8,19.8z M20.2,14.9l-3.3,0l0.2-4l3.5,0L20.2,14.9z"
		/>
	<path class="st19" d="M40.4,14.6H37l-0.1,1.8h3.4l-0.3,3.3h-3.3l-0.3,3.5h-2.5l-0.2-3.5h-8.2l-0.3-3.3h8.2l-0.1-1.8h-8.4l-0.5-4.1
		H33l-0.1-1.8l4.6,0l-0.1,1.7h3.6L40.4,14.6z M39.2,29.6H26.7L26,23.1h2.6l0.2,4.3h10.5L39.2,29.6z"/>
	<path class="st19" d="M54.6,15.2h-5.4l-0.5,9.4h-1.8L46,15.2h-1.1l-0.5-4h1.2l-0.2-2.3h4.2l-0.1,2.3h5.3L54.6,15.2z M61.7,15.2
		h-1.9L59,21.6h2.1l-0.4,2.8h-2.1l-0.6,5.1h-7.8L50,21.6h6.5l0-6.8l-0.1-3.6l5.8,0L61.7,15.2z M56.5,24.4h-4.1l0,3.2h4.2L56.5,24.4z
		"/>
	<path class="st19" d="M80.7,29.5h-5.8v-2.4h3.8l0.2-12.7l-1.9,0l-6.6,8l0.1,7.3h-1.9L68,25.3L66.6,27l-0.4-3.1l1.3-2l-0.5-4.1h-1.7
		l-0.7-4.4h1.9L66,8.6l4.3,0l0.1,9.3l5.1-7.6h7.3L80.7,29.5z"/>
	<path class="st19" d="M99.9,19h-5.3l-0.1,3.7h4.9l-0.3,2.4h-4.7l-0.1,4.3H93l-0.6-4.3h-5.1l-0.4-2.4h5.2L91.6,19h-5.2l-0.5-3.3h5.2
		l-0.4-3.1h4l-0.1,3.1h5.6L99.9,19z"/>
	<path class="st19" d="M114.1,25h-1.4v-2.7h-3.1l0.6,7.1h-1.1l-1.5-7.1H106l-0.3-2.2h1.4l-0.3-1.4h2.5l0.1,1.4h5.6L114.1,25z"/>
	<path class="st19" d="M120.8,18.6l-0.4-3.6h6.9l0,3.6L120.8,18.6z M131.9,29.1h-10l-0.2-2h8.8l0.5-12.6h3.2L131.9,29.1z"/>
	<path class="st19" d="M140.4,28.8h-1.7l0.5-14.3h3.7L140.4,28.8z M148.7,28.8l-2.9-14.5h2.1v2.5h1.9l0.6,11.9H148.7z M150.9,16.6
		h-2.7l-0.1-3.3h3.1L150.9,16.6z M148.9,14l-0.1,1.9h1.5l0.2-1.9H148.9z"/>
	<path class="st19" d="M167.3,17.2l-4.4,5.3l4.1,6.4h-1.8l-4-4.3l-3.5,4.3h-2.1l7.7-11.7h-8.5l-0.3-3.4h13.3L167.3,17.2z"/>
	<path class="st19" d="M193,14.6h-16.9l-0.5-3.8h17.8L193,14.6z M192.4,20.7l-2.8,9.5l-10.5,0l-0.2-2.1h9l1.1-7.4h-12.3l-0.4-3.2
		h16.5L192.4,20.7z"/>
	<path class="st19" d="M215,15.2l-10,3.7l9.6,0l-1.5,11.3l-13.2,0l-0.9-6.8h9.4l-0.2,4.8h3.1l0-6.5L199,21.6l-0.4-2.6l9.4-3.9
		l-9.5,0l-0.4-3.5l17.5,0L215,15.2z M206.1,25.7l-4.1,0l0.1,2.5h4.1L206.1,25.7z"/>
	<path class="st19" d="M237.6,15.8h-3.1l-0.2,1.7h3.2l-0.4,3.1H234l-0.2,1.9h3.1l-0.3,2.7h-3L233,30h-10.9l-0.9-7.5h9.7l-0.1-1.9
		H221l-0.4-3.1h9.9l-0.1-1.7h-10l-0.4-3.6h10.3l-0.1-1.3h7l-0.2,1.3h1L237.6,15.8z M231,25.2h-7l0.1,2.8h7L231,25.2z"/>
	<path class="st19" d="M256.3,30.3c-0.2-1.4-0.4-2.1-0.7-3.1l-0.7-2.4h-7.8l-0.7,2.4c-0.4,1.1-0.5,2-0.7,3.1h-6.4
		c0.4-0.9,0.7-1.6,1.3-3.5l5.9-17.3c0.5-1.4,0.7-2.3,0.9-3.1h7.2c0.2,0.8,0.4,1.6,0.9,3.1l6,17.3c0.5,1.5,1,2.7,1.3,3.5H256.3z
		 M250.9,11.3l-2.6,8.6h5.2L250.9,11.3z"/>
	<path class="st19" d="M281.2,22.9h-6.5l-0.6,6.8h-2l-0.6-6.8h-6.6l-0.4-3.1h6.8l-0.3-3.2l-5.9,0.5l-0.4-3.8l16.9-2l-0.4,4.4
		l-5.8,0.5l-0.3,3.5h6.7L281.2,22.9z"/>
	<path class="st19" d="M303.3,21.6h-16l-0.5-3.3h16.9L303.3,21.6z"/>
	<path class="st19" d="M325.4,29.4l-15.5,0l-0.4-2.5l3.7-15h5L312.4,27h10.6l-2.4-7h3.6l1.5,7.1L325.4,29.4z"/>
</g>
<g class="st20">
	<path class="st21" d="M18.9,29.5l-5.4,0l-0.1-2.3l3.8,0l0-7.6l-5.5,0l-0.5,9.8H5.5L4,16.4h4.7l-0.1-1.6H3.7l-0.4-3.9h5L8.1,8.7h4.1
		l-0.1,2.2h4.3l-0.2,3.9h-4.3l-0.1,1.6h8.4L18.9,29.5z M8.9,19.7h-2l0.3,7.6h2.2L8.9,19.7z M20.4,14.8l-3.3,0l0.2-4l3.5,0L20.4,14.8
		z"/>
	<path class="st21" d="M40.6,14.5h-3.4L37,16.3h3.4l-0.3,3.3h-3.3l-0.3,3.5H34l-0.2-3.5h-8.2l-0.3-3.3h8.2l-0.1-1.8h-8.4l-0.5-4.1
		h8.5L33,8.6l4.6,0l-0.1,1.7h3.6L40.6,14.5z M39.3,29.5H26.9L26.2,23h2.6l0.2,4.3h10.5L39.3,29.5z"/>
	<path class="st21" d="M54.8,15.1h-5.4l-0.5,9.4h-1.8l-0.9-9.4h-1.1l-0.5-4h1.2l-0.2-2.3h4.2l-0.1,2.3h5.3L54.8,15.1z M61.8,15.1
		h-1.9l-0.7,6.4h2.1L61,24.3h-2.1l-0.6,5.1h-7.8l-0.4-7.9h6.5l0-6.8l-0.1-3.6l5.8,0L61.8,15.1z M56.6,24.3h-4.1l0,3.2h4.2L56.6,24.3
		z"/>
	<path class="st21" d="M80.8,29.4H75V27h3.8L79,14.3l-1.9,0l-6.6,8l0.1,7.3h-1.9l-0.5-4.4l-1.4,1.7l-0.4-3.1l1.3-2l-0.5-4.1h-1.7
		l-0.7-4.4h1.9l-0.6-4.8l4.3,0l0.1,9.3l5.1-7.6h7.3L80.8,29.4z"/>
	<path class="st21" d="M100.1,18.9h-5.3l-0.1,3.7h4.9L99.3,25h-4.7l-0.1,4.3h-1.4L92.5,25h-5.1L87,22.6h5.2l-0.5-3.7h-5.2L86,15.6
		h5.2l-0.4-3.1h4l-0.1,3.1h5.6L100.1,18.9z"/>
	<path class="st21" d="M114.2,24.9h-1.4v-2.7h-3.1l0.6,7.1h-1.1l-1.5-7.1h-1.6l-0.3-2.2h1.4l-0.3-1.4h2.5l0.1,1.4h5.6L114.2,24.9z"
		/>
	<path class="st21" d="M120.9,18.6l-0.4-3.6h6.9l0,3.6L120.9,18.6z M132.1,29h-10l-0.2-2h8.8l0.5-12.6h3.2L132.1,29z"/>
	<path class="st21" d="M140.5,28.7h-1.7l0.5-14.3h3.7L140.5,28.7z M148.9,28.7L146,14.2h2.1v2.5h1.9l0.6,11.9H148.9z M151.1,16.5
		h-2.7l-0.1-3.3h3.1L151.1,16.5z M149.1,13.9l-0.1,1.9h1.5l0.2-1.9H149.1z"/>
	<path class="st21" d="M167.4,17.1l-4.4,5.3l4.1,6.4h-1.8l-4-4.3l-3.5,4.3h-2.1l7.7-11.7h-8.5l-0.3-3.4h13.3L167.4,17.1z"/>
	<path class="st21" d="M193.2,14.5h-16.9l-0.5-3.8h17.8L193.2,14.5z M192.5,20.6l-2.8,9.5l-10.5,0L179,28h9l1.1-7.4h-12.3l-0.4-3.2
		H193L192.5,20.6z"/>
	<path class="st21" d="M215.2,15.1l-10,3.7l9.6,0l-1.5,11.3l-13.2,0l-0.9-6.8h9.4l-0.2,4.8h3.1l0-6.5l-12.5-0.1l-0.4-2.6l9.4-3.9
		l-9.5,0l-0.4-3.5l17.5,0L215.2,15.1z M206.2,25.6l-4.1,0l0.1,2.5h4.1L206.2,25.6z"/>
	<path class="st21" d="M237.8,15.7h-3.1l-0.2,1.7h3.2l-0.4,3.1h-3.1l-0.2,1.9h3.1l-0.3,2.7h-3l-0.5,4.8h-10.9l-0.9-7.5h9.7l-0.1-1.9
		h-9.7l-0.4-3.1h9.9l-0.1-1.7h-10l-0.4-3.6h10.3l-0.1-1.3h7l-0.2,1.3h1L237.8,15.7z M231.1,25.1h-7l0.1,2.8h7L231.1,25.1z"/>
	<path class="st21" d="M256.5,30.2c-0.2-1.4-0.4-2.1-0.7-3.1l-0.7-2.4h-7.8l-0.7,2.4c-0.4,1.1-0.5,2-0.7,3.1h-6.4
		c0.4-0.9,0.7-1.6,1.3-3.5l5.9-17.3c0.5-1.4,0.7-2.3,0.9-3.1h7.2c0.2,0.8,0.4,1.6,0.9,3.1l6,17.3c0.5,1.5,1,2.7,1.3,3.5H256.5z
		 M251.1,11.2l-2.6,8.6h5.2L251.1,11.2z"/>
	<path class="st21" d="M281.3,22.8h-6.5l-0.6,6.8h-2l-0.6-6.8H265l-0.4-3.1h6.8l-0.3-3.2l-5.9,0.5l-0.4-3.8l16.9-2l-0.4,4.4
		l-5.8,0.5l-0.3,3.5h6.7L281.3,22.8z"/>
	<path class="st21" d="M303.4,21.5h-16l-0.5-3.3h16.9L303.4,21.5z"/>
	<path class="st21" d="M325.6,29.3l-15.5,0l-0.4-2.5l3.7-15h5l-5.8,15.1h10.6l-2.4-7h3.6l1.5,7.1L325.6,29.3z"/>
</g>
</svg>
